<svg id="visual" viewBox="0 0 675 900" width="675" height="900" xmlns="http://www.w3.org/2000/svg" xmlns:xlink="http://www.w3.org/1999/xlink" version="1.1"><rect x="0" y="0" width="675" height="900" fill="#002233"></rect><path d="M0 705L16 719.7C32 734.3 64 763.7 96.2 745.2C128.3 726.7 160.7 660.3 192.8 668.2C225 676 257 758 289.2 777.3C321.3 796.7 353.7 753.3 385.8 735C418 716.7 450 723.3 482.2 714.5C514.3 705.7 546.7 681.3 578.8 679.7C611 678 643 699 659 709.5L675 720L675 901L659 901C643 901 611 901 578.8 901C546.7 901 514.3 901 482.2 901C450 901 418 901 385.8 901C353.7 901 321.3 901 289.2 901C257 901 225 901 192.8 901C160.7 901 128.3 901 96.2 901C64 901 32 901 16 901L0 901Z" fill="#0066FF" stroke-linecap="round" stroke-linejoin="miter"></path></svg>